<svg xmlns="http://www.w3.org/2000/svg" viewBox="0 0 900 452" width="900" height="452" style="max-width:100%;height:auto" role="img" aria-label="Memoir: one Markdown file per category, three layers deep, plus a dedicated page">
  <style>
    text { font-family: ui-sans-serif, system-ui, -apple-system, "Segoe UI", "Noto Sans", sans-serif; }
    .mono { font-family: ui-monospace, SFMono-Regular, Menlo, Consolas, monospace; }
    .title { font-size: 27px; font-weight: 700; fill: #1f2328; }
    .sub { font-size: 13px; fill: #656d76; }
    .cardtitle { font-size: 11px; font-weight: 600; fill: #8c959f; letter-spacing: .08em; }
    .l1 { font-size: 15px; font-weight: 700; fill: #8250df; }
    .l2 { font-size: 13px; font-weight: 700; fill: #0969da; }
    .l3 { font-size: 12px; fill: #1f2328; }
    .meta { font-size: 10.5px; fill: #a0a8b0; }
    .cat { font-size: 12px; font-weight: 600; fill: #1f2328; }
    .catdim { font-size: 12px; fill: #57606a; }
    .cnt { font-size: 10.5px; fill: #8c959f; }
    .note { font-size: 11px; fill: #656d76; }
    .badgetext { font-size: 11px; font-weight: 600; fill: #0969da; }
  </style>
  <rect width="900" height="452" fill="#ffffff"/>
  <text class="title" x="34" y="46">Memoir</text>
  <text class="sub" x="34" y="68">跨会话记忆，一份简短可读的 Markdown 活文档 —— 每次改写，而非追加。</text>
  <rect x="34" y="94" width="404" height="322" rx="12" fill="#f6f8fa" stroke="#d0d7de" stroke-width="1.5"/>
  <text class="cardtitle" x="56" y="122">记忆库 · 一个分类一个 .MD</text>
  <text class="l1 mono" x="56" y="154"># 在做的事</text>
  <text class="meta mono" x="56" y="174">&lt;!-- 每个项目一节 · 可直接手工编辑 --&gt;</text>
  <text class="l2 mono" x="56" y="204">## 记忆册</text>
  <text class="l3 mono" x="56" y="226">- 把跨会话记忆整理成</text>
  <text class="l3 mono" x="56" y="244">  分类简短的 md 活文档</text>
  <text class="l3 mono" x="56" y="266">- 按三层组织：分类 / 小节 /</text>
  <text class="l3 mono" x="56" y="284">  条目，最多三层</text>
  <text class="l2 mono" x="56" y="314">## 修仙：进化网络</text>
  <text class="l3 mono" x="56" y="336">undefined</text>
  <text class="l3 mono" x="56" y="354">  长出承载语义的拓扑</text>
  <text class="meta mono" x="56" y="378">&lt;!-- memoir id=a1b2c3d4 | imp=4 --&gt;</text>
  <text class="note" x="56" y="400">纯文本 · 无数据库 · 无缓存</text>
  <rect x="462" y="94" width="404" height="322" rx="12" fill="#ffffff" stroke="#d0d7de" stroke-width="1.5"/>
  <text class="cardtitle" x="484" y="122">界面 · 侧边栏入口</text>
  <rect x="482" y="138" width="126" height="256" rx="8" fill="#f6f8fa" stroke="#e4e8ec" stroke-width="1"/>
  <rect x="492" y="150" width="106" height="24" rx="6" fill="#ddf4ff" stroke="#54aeff" stroke-width="1"/>
  <text class="cat" x="502" y="167">全部</text>
  <text class="cnt" x="578" y="167">38</text>
  <text class="catdim" x="502" y="196">关于用户</text>
  <text class="cnt" x="578" y="196">15</text>
  <text class="catdim" x="502" y="222">偏好与规则</text>
  <text class="cnt" x="578" y="222">6</text>
  <text class="catdim" x="502" y="248">正在做的事</text>
  <text class="cnt" x="578" y="248">16</text>
  <text class="catdim" x="502" y="274">定下的决策</text>
  <text class="cnt" x="578" y="274">5</text>
  <text class="catdim" x="502" y="300">关于助手</text>
  <text class="cnt" x="578" y="300">2</text>
  <line x1="492" y1="324" x2="598" y2="324" stroke="#e4e8ec" stroke-width="1"/>
  <text class="catdim" x="502" y="346">⚙ 设置</text>
  <text class="cnt" x="502" y="366">写入开关</text>
  <rect x="624" y="138" width="222" height="66" rx="8" fill="#ffffff" stroke="#d8dee4" stroke-width="1"/>
  <text class="l2 mono" x="638" y="158" font-size="11.5">记忆册</text>
  <text class="l3" x="638" y="176" font-size="11.5">把跨会话记忆整理成</text>
  <text class="l3" x="638" y="193" font-size="11.5">分类简短的 md 活文档</text>
  <rect x="624" y="214" width="222" height="52" rx="8" fill="#ffffff" stroke="#d8dee4" stroke-width="1"/>
  <text class="l2 mono" x="638" y="234" font-size="11.5">记忆册</text>
  <text class="l3" x="638" y="252" font-size="11.5">只承担长期宏观那一层</text>
  <rect x="624" y="276" width="222" height="66" rx="8" fill="#ffffff" stroke="#d8dee4" stroke-width="1"/>
  <text class="l2 mono" x="638" y="296" font-size="11.5">修仙：进化网络</text>
  <text class="l3" x="638" y="314" font-size="11.5">拓扑承载语义，</text>
  <text class="l3" x="638" y="331" font-size="11.5">网络要能自己长出来</text>
  <rect x="624" y="354" width="120" height="26" rx="13" fill="#ddf4ff" stroke="#54aeff" stroke-width="1"/>
  <text class="badgetext" x="640" y="371">← 返回对话</text>
  <text class="cnt" x="756" y="371">⚙ 设置</text>
</svg>
