<svg xmlns="http://www.w3.org/2000/svg" viewBox="0 0 900 452" width="900" height="452" style="max-width:100%;height:auto" role="img" aria-label="Memoir: one Markdown file per category, three layers deep, plus a dedicated page">
  <style>
    text { font-family: ui-sans-serif, system-ui, -apple-system, "Segoe UI", "Noto Sans", sans-serif; }
    .mono { font-family: ui-monospace, SFMono-Regular, Menlo, Consolas, monospace; }
    .title { font-size: 27px; font-weight: 700; fill: #1f2328; }
    .sub { font-size: 13px; fill: #656d76; }
    .cardtitle { font-size: 11px; font-weight: 600; fill: #8c959f; letter-spacing: .08em; }
    .l1 { font-size: 15px; font-weight: 700; fill: #8250df; }
    .l2 { font-size: 13px; font-weight: 700; fill: #0969da; }
    .l3 { font-size: 12px; fill: #1f2328; }
    .meta { font-size: 10.5px; fill: #a0a8b0; }
    .cat { font-size: 12px; font-weight: 600; fill: #1f2328; }
    .catdim { font-size: 12px; fill: #57606a; }
    .cnt { font-size: 10.5px; fill: #8c959f; }
    .note { font-size: 11px; fill: #656d76; }
    .badgetext { font-size: 11px; font-weight: 600; fill: #0969da; }
  </style>
  <rect width="900" height="452" fill="#ffffff"/>
  <text class="title" x="34" y="46">Memoir</text>
  <text class="sub" x="34" y="68">Cross-session memory, kept as a short Markdown living document — rewritten, never appended to.</text>
  <rect x="34" y="94" width="404" height="322" rx="12" fill="#f6f8fa" stroke="#d0d7de" stroke-width="1.5"/>
  <text class="cardtitle" x="56" y="122">MEMORY DIR · ONE .MD PER CATEGORY</text>
  <text class="l1 mono" x="56" y="154"># Things in flight</text>
  <text class="meta mono" x="56" y="174">&lt;!-- one section per project · hand-editable --&gt;</text>
  <text class="l2 mono" x="56" y="204">## Memoir</text>
  <text class="l3 mono" x="56" y="226">- Cross-session memory as</text>
  <text class="l3 mono" x="56" y="244">  a short Markdown living doc</text>
  <text class="l3 mono" x="56" y="266">- Three layers: category /</text>
  <text class="l3 mono" x="56" y="284">  section / entry, never more</text>
  <text class="l2 mono" x="56" y="314">## Net: semantic topology</text>
  <text class="l3 mono" x="56" y="336">- A network whose topology</text>
  <text class="l3 mono" x="56" y="354">  carries meaning, grown itself</text>
  <text class="meta mono" x="56" y="378">&lt;!-- memoir id=a1b2c3d4 | imp=4 --&gt;</text>
  <text class="note" x="56" y="400">Plain text · no database · no cache</text>
  <rect x="462" y="94" width="404" height="322" rx="12" fill="#ffffff" stroke="#d0d7de" stroke-width="1.5"/>
  <text class="cardtitle" x="484" y="122">GUI PAGE · SIDEBAR ENTRY</text>
  <rect x="482" y="138" width="126" height="256" rx="8" fill="#f6f8fa" stroke="#e4e8ec" stroke-width="1"/>
  <rect x="492" y="150" width="106" height="24" rx="6" fill="#ddf4ff" stroke="#54aeff" stroke-width="1"/>
  <text class="cat" x="502" y="167">All</text>
  <text class="cnt" x="578" y="167">38</text>
  <text class="catdim" x="502" y="196">User</text>
  <text class="cnt" x="578" y="196">15</text>
  <text class="catdim" x="502" y="222">Prefs</text>
  <text class="cnt" x="578" y="222">6</text>
  <text class="catdim" x="502" y="248">Projects</text>
  <text class="cnt" x="578" y="248">16</text>
  <text class="catdim" x="502" y="274">Decisions</text>
  <text class="cnt" x="578" y="274">5</text>
  <text class="catdim" x="502" y="300">Assistant</text>
  <text class="cnt" x="578" y="300">2</text>
  <line x1="492" y1="324" x2="598" y2="324" stroke="#e4e8ec" stroke-width="1"/>
  <text class="catdim" x="502" y="346">⚙ Settings</text>
  <text class="cnt" x="502" y="366">writes</text>
  <rect x="624" y="138" width="222" height="66" rx="8" fill="#ffffff" stroke="#d8dee4" stroke-width="1"/>
  <text class="l2 mono" x="638" y="158" font-size="11.5">Memoir</text>
  <text class="l3" x="638" y="176" font-size="11.5">Cross-session memory as</text>
  <text class="l3" x="638" y="193" font-size="11.5">a short Markdown living doc</text>
  <rect x="624" y="214" width="222" height="52" rx="8" fill="#ffffff" stroke="#d8dee4" stroke-width="1"/>
  <text class="l2 mono" x="638" y="234" font-size="11.5">Memoir</text>
  <text class="l3" x="638" y="252" font-size="11.5">Only the long-term layer</text>
  <rect x="624" y="276" width="222" height="66" rx="8" fill="#ffffff" stroke="#d8dee4" stroke-width="1"/>
  <text class="l2 mono" x="638" y="296" font-size="11.5">Net: semantic topology</text>
  <text class="l3" x="638" y="314" font-size="11.5">Topology carries meaning;</text>
  <text class="l3" x="638" y="331" font-size="11.5">the network grows itself</text>
  <rect x="624" y="354" width="120" height="26" rx="13" fill="#ddf4ff" stroke="#54aeff" stroke-width="1"/>
  <text class="badgetext" x="640" y="371">← Back to chat</text>
  <text class="cnt" x="756" y="371">⚙ Settings</text>
</svg>
