<svg xmlns="http://www.w3.org/2000/svg" viewBox="0 0 900 340" width="900" height="340" style="max-width:100%;height:auto" role="img" aria-label="Three write paths feed one living document; a capacity trigger forces a tidy-up">
  <style>
    text { font-family: ui-sans-serif, system-ui, -apple-system, "Segoe UI", "Noto Sans", sans-serif; }
    .mono { font-family: ui-monospace, SFMono-Regular, Menlo, Consolas, monospace; }
    .t { font-size: 13px; font-weight: 600; fill: #1f2328; }
    .d { font-size: 11.5px; fill: #656d76; }
    .d2 { font-size: 10.5px; fill: #8c959f; }
    .label { font-size: 10.5px; font-weight: 600; fill: #8c959f; letter-spacing: .09em; }
    .badgetext { font-size: 11px; font-weight: 600; fill: #0969da; }
    .arrow { stroke: #8c959f; stroke-width: 1.6; fill: none; }
  </style>
  <defs>
    <marker id="ah" viewBox="0 0 10 10" refX="9" refY="5" markerWidth="6.5" markerHeight="6.5" orient="auto-start-reverse">
      <path d="M 0 0 L 10 5 L 0 10 z" fill="#8c959f"/>
    </marker>
  </defs>
  <rect width="900" height="340" fill="#ffffff"/>
  <text class="label" x="34" y="34">三条写入通道</text>
  <text class="label" x="330" y="34">一个编辑者</text>
  <text class="label" x="640" y="34">一本活文档</text>
  <rect x="34" y="52" width="212" height="52" rx="10" fill="#ffffff" stroke="#d0d7de" stroke-width="1.5"/>
  <text class="t" x="54" y="74">模型工具</text>
  <text class="d mono" x="54" y="92">memoir_note</text>
  <text class="d2" x="150" y="74">模型自己判断</text>
  <rect x="34" y="120" width="212" height="52" rx="10" fill="#ffffff" stroke="#d0d7de" stroke-width="1.5"/>
  <text class="t" x="54" y="142">页面手写</text>
  <text class="d mono" x="54" y="160">GUI / 直接编辑 .md</text>
  <text class="d2" x="188" y="142">立刻生效</text>
  <rect x="34" y="188" width="212" height="52" rx="10" fill="#ffffff" stroke="#d0d7de" stroke-width="1.5"/>
  <text class="t" x="54" y="210">每轮对话</text>
  <text class="d mono" x="54" y="228">turn/end + 20s</text>
  <text class="d2" x="172" y="210">自动改写</text>
  <line class="arrow" x1="250" y1="78" x2="326" y2="140" marker-end="url(#ah)"/>
  <line class="arrow" x1="250" y1="146" x2="326" y2="150" marker-end="url(#ah)"/>
  <line class="arrow" x1="250" y1="214" x2="326" y2="160" marker-end="url(#ah)"/>
  <rect x="330" y="52" width="240" height="188" rx="12" fill="#f6f8fa" stroke="#d0d7de" stroke-width="1.5"/>
  <text class="t" x="352" y="78">改写 = 编辑，不是记录员</text>
  <text class="d" x="352" y="102">读整本 + 这段新对话</text>
  <text class="d" x="352" y="120">→ 交出改写后的完整版本</text>
  <line x1="352" y1="134" x2="548" y2="134" stroke="#e4e8ec" stroke-width="1"/>
  <text class="d" x="352" y="156">合并同义 · 缩略长句</text>
  <text class="d" x="352" y="174">删除过期 · 增删小节</text>
  <text class="d" x="352" y="196">长度由内容决定，</text>
  <text class="d" x="352" y="214">不由历史决定</text>
  <text class="d2" x="352" y="234">推理默认关闭；</text>
  <text class="d2" x="352" y="248" font-size="10.5">预算随记忆规模放大</text>
  <line class="arrow" x1="574" y1="146" x2="636" y2="146" marker-end="url(#ah)"/>
  <rect x="640" y="52" width="226" height="188" rx="12" fill="#ffffff" stroke="#54aeff" stroke-width="1.6"/>
  <text class="t mono" x="660" y="78"># 在做的事</text>
  <text class="t mono" x="660" y="102" font-size="12">## 记忆册</text>
  <text class="d" x="660" y="122">· 分类简短的</text>
  <text class="d" x="660" y="140">  md 活文档</text>
  <text class="d" x="660" y="162">· 只承担长期宏观那一层</text>
  <text class="t mono" x="660" y="188" font-size="12">## 修仙：进化网络</text>
  <text class="d" x="660" y="208">· 拓扑承载语义</text>
  <text class="d2" x="660" y="228">纯文本 · 可手工编辑</text>
  <rect x="330" y="262" width="536" height="60" rx="10" fill="#fff8c5" stroke="#d4a72c" stroke-width="1.4"/>
  <text class="t" x="352" y="282">容量触发整理</text>
  <text class="d" x="352" y="300">单个分类超 12 条，或整本超 40 条 ——</text>
  <text class="d" x="352" y="316">这次改写带上强制整理令：合并、缩略、</text>
  <rect x="34" y="262" width="212" height="60" rx="10" fill="#ffffff" stroke="#d0d7de" stroke-width="1.5"/>
  <text class="badgetext" x="54" y="284">阈值都在配置里</text>
  <text class="d mono" x="54" y="302">pageEntryLimit: 12</text>
  <text class="d mono" x="54" y="318">bookEntryLimit: 40</text>
</svg>
